{
  "accessors": [
    {
      "bufferView": 2,
      "componentType": 5126,
      "count": 65532,
      "max": [
        47.706844329833984,
        63.27783203125,
        135.96371459960938
      ],
      "min": [
        -59.073726654052734,
        -74.04818725585938,
        -155.77627563476563
      ],
      "type": "VEC3"
    },
    {
      "bufferView": 2,
      "byteOffset": 786384,
      "componentType": 5126,
      "count": 65532,
      "max": [
        1.0,
        1.0,
        1.0
      ],
      "min": [
        -1.0,
        -0.9999716281890869,
        -1.0
      ],
      "type": "VEC3"
    },
    {
      "bufferView": 1,
      "componentType": 5126,
      "count": 65532,
      "max": [
        0.9362580180168152,
        0.9467700123786926
      ],
      "min": [
        0.008871999569237232,
        0.006366000045090914
      ],
      "type": "VEC2"
    },
    {
      "bufferView": 0,
      "componentType": 5125,
      "count": 339225,
      "type": "SCALAR"
    },
    {
      "bufferView": 2,
      "byteOffset": 1572768,
      "componentType": 5126,
      "count": 65532,
      "max": [
        47.04460525512695,
        59.07783508300781,
        142.38726806640625
      ],
      "min": [
        -56.41024398803711,
        -68.52217102050781,
        -133.2362823486328
      ],
      "type": "VEC3"
    },
    {
      "bufferView": 2,
      "byteOffset": 2359152,
      "componentType": 5126,
      "count": 65532,
      "max": [
        0.9999685883522034,
        0.999849796295166,
        0.9995038509368896
      ],
      "min": [
        -0.9999743700027466,
        -0.9999898076057434,
        -1.0
      ],
      "type": "VEC3"
    },
    {
      "bufferView": 1,
      "byteOffset": 524256,
      "componentType": 5126,
      "count": 65532,
      "max": [
        0.8706629872322083,
        0.8757960200309753
      ],
      "min": [
        0.07487600296735764,
        0.008635999634861946
      ],
      "type": "VEC2"
    },
    {
      "bufferView": 0,
      "byteOffset": 1356900,
      "componentType": 5125,
      "count": 368121,
      "type": "SCALAR"
    },
    {
      "bufferView": 2,
      "byteOffset": 3145536,
      "componentType": 5126,
      "count": 65532,
      "max": [
        36.636390686035156,
        26.969648361206055,
        142.21286010742188
      ],
      "min": [
        -62.330989837646484,
        -74.58763122558594,
        -151.436279296875
      ],
      "type": "VEC3"
    },
    {
      "bufferView": 2,
      "byteOffset": 3931920,
      "componentType": 5126,
      "count": 65532,
      "max": [
        0.9999600052833557,
        0.9999700784683228,
        0.9999715089797974
      ],
      "min": [
        -1.0,
        -0.9999552369117737,
        -1.0
      ],
      "type": "VEC3"
    },
    {
      "bufferView": 1,
      "byteOffset": 1048512,
      "componentType": 5126,
      "count": 65532,
      "max": [
        0.9671909809112549,
        0.7072319984436035
      ],
      "min": [
        0.05322999879717827,
        0.017340999096632004
      ],
      "type": "VEC2"
    },
    {
      "bufferView": 0,
      "byteOffset": 2829384,
      "componentType": 5125,
      "count": 377565,
      "type": "SCALAR"
    },
    {
      "bufferView": 2,
      "byteOffset": 4718304,
      "componentType": 5126,
      "count": 65532,
      "max": [
        47.04454803466797,
        67.53955841064453,
        94.30777740478516
      ],
      "min": [
        -35.42424011230469,
        -73.4249496459961,
        -155.63629150390625
      ],
      "type": "VEC3"
    },
    {
      "bufferView": 2,
      "byteOffset": 5504688,
      "componentType": 5126,
      "count": 65532,
      "max": [
        0.9999948143959045,
        0.9973061680793762,
        0.9999389052391052
      ],
      "min": [
        -0.9999764561653137,
        -0.9999678134918213,
        -0.9998374581336975
      ],
      "type": "VEC3"
    },
    {
      "bufferView": 1,
      "byteOffset": 1572768,
      "componentType": 5126,
      "count": 65532,
      "max": [
        0.9826279878616333,
        0.8935390114784241
      ],
      "min": [
        0.28157898783683777,
        0.13387000560760498
      ],
      "type": "VEC2"
    },
    {
      "bufferView": 0,
      "byteOffset": 4339644,
      "componentType": 5125,
      "count": 374703,
      "type": "SCALAR"
    },
    {
      "bufferView": 2,
      "byteOffset": 6291072,
      "componentType": 5126,
      "count": 65532,
      "max": [
        46.83615493774414,
        22.70520782470703,
        142.2484893798828
      ],
      "min": [
        -19.848466873168945,
        -75.07533264160156,
        -157.83628845214844
      ],
      "type": "VEC3"
    },
    {
      "bufferView": 2,
      "byteOffset": 7077456,
      "componentType": 5126,
      "count": 65532,
      "max": [
        0.9999922513961792,
        0.9990445971488953,
        0.999813973903656
      ],
      "min": [
        -0.9985167384147644,
        -0.9999627470970154,
        -0.9994639158248901
      ],
      "type": "VEC3"
    },
    {
      "bufferView": 1,
      "byteOffset": 2097024,
      "componentType": 5126,
      "count": 65532,
      "max": [
        0.8676130175590515,
        0.9911280274391174
      ],
      "min": [
        0.05322999879717827,
        0.09168799966573715
      ],
      "type": "VEC2"
    },
    {
      "bufferView": 0,
      "byteOffset": 5838456,
      "componentType": 5125,
      "count": 363849,
      "type": "SCALAR"
    },
    {
      "bufferView": 2,
      "byteOffset": 7863840,
      "componentType": 5126,
      "count": 65532,
      "max": [
        29.501028060913086,
        97.05813598632813,
        136.7637176513672
      ],
      "min": [
        -60.08372497558594,
        -54.17226791381836,
        -66.05010223388672
      ],
      "type": "VEC3"
    },
    {
      "bufferView": 2,
      "byteOffset": 8650224,
      "componentType": 5126,
      "count": 65532,
      "max": [
        0.9999340772628784,
        0.999986469745636,
        0.9613321423530579
      ],
      "min": [
        -0.9999765753746033,
        -0.9999979734420776,
        -0.9994478225708008
      ],
      "type": "VEC3"
    },
    {
      "bufferView": 1,
      "byteOffset": 2621280,
      "componentType": 5126,
      "count": 65532,
      "max": [
        0.5051310062408447,
        0.9911280274391174
      ],
      "min": [
        0.008871999569237232,
        0.4665830135345459
      ],
      "type": "VEC2"
    },
    {
      "bufferView": 0,
      "byteOffset": 7293852,
      "componentType": 5125,
      "count": 362532,
      "type": "SCALAR"
    },
    {
      "bufferView": 2,
      "byteOffset": 9436608,
      "componentType": 5126,
      "count": 65532,
      "max": [
        44.859535217285156,
        94.47783660888672,
        93.95083618164063
      ],
      "min": [
        -60.08372497558594,
        -66.79356384277344,
        -134.436279296875
      ],
      "type": "VEC3"
    },
    {
      "bufferView": 2,
      "byteOffset": 10222992,
      "componentType": 5126,
      "count": 65532,
      "max": [
        0.9999992251396179,
        0.9997583031654358,
        0.9997608661651611
      ],
      "min": [
        -0.999981164932251,
        -1.0,
        -0.999510645866394
      ],
      "type": "VEC3"
    },
    {
      "bufferView": 1,
      "byteOffset": 3145536,
      "componentType": 5126,
      "count": 65532,
      "max": [
        0.9295600056648254,
        0.9911280274391174
      ],
      "min": [
        0.23066499829292297,
        0.4588629901409149
      ],
      "type": "VEC2"
    },
    {
      "bufferView": 0,
      "byteOffset": 8743980,
      "componentType": 5125,
      "count": 366159,
      "type": "SCALAR"
    },
    {
      "bufferView": 2,
      "byteOffset": 11009376,
      "componentType": 5126,
      "count": 65532,
      "max": [
        35.951534271240234,
        96.9231948852539,
        97.98814392089844
      ],
      "min": [
        -62.26902770996094,
        -71.3221664428711,
        -158.31663513183594
      ],
      "type": "VEC3"
    },
    {
      "bufferView": 2,
      "byteOffset": 11795760,
      "componentType": 5126,
      "count": 65532,
      "max": [
        0.9984360337257385,
        0.9999886751174927,
        0.9999684691429138
      ],
      "min": [
        -0.9999085664749146,
        -0.9999628067016602,
        -0.9999844431877136
      ],
      "type": "VEC3"
    },
    {
      "bufferView": 1,
      "byteOffset": 3669792,
      "componentType": 5126,
      "count": 65532,
      "max": [
        0.9842129945755005,
        0.9911280274391174
      ],
      "min": [
        0.25728100538253784,
        0.3153670132160187
      ],
      "type": "VEC2"
    },
    {
      "bufferView": 0,
      "byteOffset": 10208616,
      "componentType": 5125,
      "count": 379047,
      "type": "SCALAR"
    },
    {
      "bufferView": 2,
      "byteOffset": 12582144,
      "componentType": 5126,
      "count": 14432,
      "max": [
        40.023738861083984,
        -16.583154678344727,
        -84.63628387451172
      ],
      "min": [
        -62.131126403808594,
        -75.07533264160156,
        -158.48434448242188
      ],
      "type": "VEC3"
    },
    {
      "bufferView": 2,
      "byteOffset": 12755328,
      "componentType": 5126,
      "count": 14432,
      "max": [
        0.9996035695075989,
        0.9995483160018921,
        0.999813973903656
      ],
      "min": [
        -0.9988874197006226,
        -0.9996621608734131,
        -0.9999985098838806
      ],
      "type": "VEC3"
    },
    {
      "bufferView": 1,
      "byteOffset": 4194048,
      "componentType": 5126,
      "count": 14432,
      "max": [
        0.365803986787796,
        0.4144650101661682
      ],
      "min": [
        0.25728100538253784,
        0.07950799912214279
      ],
      "type": "VEC2"
    },
    {
      "bufferView": 0,
      "byteOffset": 11724804,
      "componentType": 5125,
      "count": 68385,
      "type": "SCALAR"
    }
  ],
  "asset": {
    "extras": {
      "author": "RISD Nature Lab (https://sketchfab.com/RISDNaturelab)",
      "license": "CC-BY-4.0 (http://creativecommons.org/licenses/by/4.0/)",
      "source": "https://sketchfab.com/3d-models/spiny-tailed-iguana-a0c89ae010d044e0b1d4a6ae3ceafd12",
      "title": "Spiny-tailed Iguana"
    },
    "generator": "Sketchfab-12.65.0",
    "version": "2.0"
  },
  "bufferViews": [
    {
      "buffer": 0,
      "byteLength": 11998344,
      "name": "floatBufferViews",
      "target": 34963
    },
    {
      "buffer": 0,
      "byteLength": 4309504,
      "byteOffset": 11998344,
      "byteStride": 8,
      "name": "floatBufferViews",
      "target": 34962
    },
    {
      "buffer": 0,
      "byteLength": 12928512,
      "byteOffset": 16307848,
      "byteStride": 12,
      "name": "floatBufferViews",
      "target": 34962
    }
  ],
  "buffers": [
    {
      "byteLength": 29236360,
      "uri": "scene.bin"
    }
  ],
  "images": [
    {
      "uri": "textures/material_0_baseColor.png"
    }
  ],
  "materials": [
    {
      "doubleSided": true,
      "name": "material_0",
      "pbrMetallicRoughness": {
        "baseColorTexture": {
          "index": 0
        },
        "metallicFactor": 0.0,
        "roughnessFactor": 0.6003911985119533
      }
    }
  ],
  "meshes": [
    {
      "name": "Object_0",
      "primitives": [
        {
          "attributes": {
            "NORMAL": 1,
            "POSITION": 0,
            "TEXCOORD_0": 2
          },
          "indices": 3,
          "material": 0,
          "mode": 4
        }
      ]
    },
    {
      "name": "Object_1",
      "primitives": [
        {
          "attributes": {
            "NORMAL": 5,
            "POSITION": 4,
            "TEXCOORD_0": 6
          },
          "indices": 7,
          "material": 0,
          "mode": 4
        }
      ]
    },
    {
      "name": "Object_2",
      "primitives": [
        {
          "attributes": {
            "NORMAL": 9,
            "POSITION": 8,
            "TEXCOORD_0": 10
          },
          "indices": 11,
          "material": 0,
          "mode": 4
        }
      ]
    },
    {
      "name": "Object_3",
      "primitives": [
        {
          "attributes": {
            "NORMAL": 13,
            "POSITION": 12,
            "TEXCOORD_0": 14
          },
          "indices": 15,
          "material": 0,
          "mode": 4
        }
      ]
    },
    {
      "name": "Object_4",
      "primitives": [
        {
          "attributes": {
            "NORMAL": 17,
            "POSITION": 16,
            "TEXCOORD_0": 18
          },
          "indices": 19,
          "material": 0,
          "mode": 4
        }
      ]
    },
    {
      "name": "Object_5",
      "primitives": [
        {
          "attributes": {
            "NORMAL": 21,
            "POSITION": 20,
            "TEXCOORD_0": 22
          },
          "indices": 23,
          "material": 0,
          "mode": 4
        }
      ]
    },
    {
      "name": "Object_6",
      "primitives": [
        {
          "attributes": {
            "NORMAL": 25,
            "POSITION": 24,
            "TEXCOORD_0": 26
          },
          "indices": 27,
          "material": 0,
          "mode": 4
        }
      ]
    },
    {
      "name": "Object_7",
      "primitives": [
        {
          "attributes": {
            "NORMAL": 29,
            "POSITION": 28,
            "TEXCOORD_0": 30
          },
          "indices": 31,
          "material": 0,
          "mode": 4
        }
      ]
    },
    {
      "name": "Object_8",
      "primitives": [
        {
          "attributes": {
            "NORMAL": 33,
            "POSITION": 32,
            "TEXCOORD_0": 34
          },
          "indices": 35,
          "material": 0,
          "mode": 4
        }
      ]
    }
  ],
  "nodes": [
    {
      "children": [
        1
      ],
      "matrix": [
        -0.46285727620124817,
        -0.04408007115125637,
        -0.88533616065979,
        0.0,
        -0.49438464641571045,
        -0.8161627650260926,
        0.29910227656364424,
        0.0,
        -0.7357628345489502,
        0.5761382579803466,
        0.35597437620162975,
        0.0,
        -11.184118270874023,
        5.23710918426514,
        -17.88760757446289,
        1.0
      ],
      "name": "Sketchfab_model"
    },
    {
      "children": [
        2,
        3,
        4,
        5,
        6,
        7,
        8,
        9,
        10
      ],
      "name": "1-spiny-tailed iguana (Ctenosaura similis)_856.94.obj.cleaner.materialmerger.gles"
    },
    {
      "mesh": 0,
      "name": "Object_2"
    },
    {
      "mesh": 1,
      "name": "Object_3"
    },
    {
      "mesh": 2,
      "name": "Object_4"
    },
    {
      "mesh": 3,
      "name": "Object_5"
    },
    {
      "mesh": 4,
      "name": "Object_6"
    },
    {
      "mesh": 5,
      "name": "Object_7"
    },
    {
      "mesh": 6,
      "name": "Object_8"
    },
    {
      "mesh": 7,
      "name": "Object_9"
    },
    {
      "mesh": 8,
      "name": "Object_10"
    }
  ],
  "samplers": [
    {
      "magFilter": 9729,
      "minFilter": 9987,
      "wrapS": 10497,
      "wrapT": 10497
    }
  ],
  "scene": 0,
  "scenes": [
    {
      "name": "Sketchfab_Scene",
      "nodes": [
        0
      ]
    }
  ],
  "textures": [
    {
      "sampler": 0,
      "source": 0
    }
  ]
}
