<svg viewBox="0 0 184 428"><rect width="144" height="20" x="40" y="6" rx="10"/><circle cx="16" cy="16" r="16"/><rect width="144" height="20" x="40" y="50" opacity=".9" rx="10"/><circle cx="16" cy="60" r="16" opacity=".9"/><rect width="144" height="20" x="40" y="94" opacity=".8" rx="10"/><circle cx="16" cy="104" r="16" opacity=".8"/><rect width="144" height="20" x="40" y="138" opacity=".7" rx="10"/><circle cx="16" cy="148" r="16" opacity=".7"/><rect width="144" height="20" x="40" y="182" opacity=".6" rx="10"/><circle cx="16" cy="192" r="16" opacity=".6"/><rect width="144" height="20" x="40" y="226" opacity=".5" rx="10"/><circle cx="16" cy="236" r="16" opacity=".5"/><rect width="144" height="20" x="40" y="270" opacity=".4" rx="10"/><circle cx="16" cy="280" r="16" opacity=".4"/><rect width="144" height="20" x="40" y="314" opacity=".3" rx="10"/><circle cx="16" cy="324" r="16" opacity=".3"/><rect width="144" height="20" x="40" y="358" opacity=".2" rx="10"/><circle cx="16" cy="368" r="16" opacity=".2"/><rect width="144" height="20" x="40" y="402" opacity=".1" rx="10"/><circle cx="16" cy="412" r="16" opacity=".1"/></svg>